<svg width="19" height="24" viewBox="0 0 19 24" fill="none" xmlns="http://www.w3.org/2000/svg">
<path d="M6.61083 21.1051C6.61078 21.1114 6.61035 21.1176 6.61035 21.1238C6.61035 22.6931 7.90805 23.9653 9.50884 23.9653C11.1096 23.9653 12.4073 22.6931 12.4073 21.1238C12.4073 21.1176 12.4069 21.1114 12.4068 21.1051H6.61083Z" fill="#363795"/>
<path d="M18.7632 17.5533L16.1546 13.7967C16.1546 12.6467 16.1546 9.83677 16.1546 9.10988C16.1546 5.94913 13.8584 3.31445 10.8122 2.72071V1.27748C10.8121 0.571983 10.2287 0 9.509 0C8.78929 0 8.20587 0.571983 8.20587 1.27748V2.72077C5.15965 3.31456 2.86347 5.94923 2.86347 9.10993C2.86347 10.3473 2.86347 13.0795 2.86347 13.7967L0.254827 17.5533C-0.0199546 17.949 -0.0490134 18.4612 0.179306 18.8843C0.407625 19.3075 0.855855 19.5721 1.34416 19.5721H17.6738C18.1621 19.5721 18.6104 19.3074 18.8387 18.8843C19.0671 18.4612 19.038 17.949 18.7632 17.5533Z" fill="#363795"/>
</svg>
