<svg width="18" height="18" viewBox="0 0 18 18" fill="none" xmlns="http://www.w3.org/2000/svg">
<path d="M0.783447 2.20809H3.98671H6.79931" stroke="#363795" stroke-linecap="square"/>
<path d="M11.1118 2.493H14.3151H17.1277" stroke="#363795" stroke-linecap="square"/>
<path d="M10.6117 2.1369C10.6117 3.04094 9.87883 3.77381 8.9748 3.77381C8.07076 3.77381 7.33789 3.04094 7.33789 2.1369C7.33789 1.23287 8.07076 0.5 8.9748 0.5C9.87883 0.5 10.6117 1.23287 10.6117 2.1369Z" stroke="#363795"/>
<path d="M0.783447 8.4764H3.98671H9.4023" stroke="#363795" stroke-linecap="square"/>
<path fill-rule="evenodd" clip-rule="evenodd" d="M13.0674 8.4764H14.0301H16.8427H13.0674Z" stroke="#363795" stroke-linecap="square"/>
<path d="M13.1762 8.40522C13.1762 9.30925 12.4433 10.0421 11.5392 10.0421C10.6352 10.0421 9.90234 9.30925 9.90234 8.40522C9.90234 7.50118 10.6352 6.76831 11.5392 6.76831C12.4433 6.76831 13.1762 7.50118 13.1762 8.40522Z" stroke="#363795"/>
<path d="M17.0952 14.7447H13.892H8.47637" stroke="#363795" stroke-linecap="square"/>
<path fill-rule="evenodd" clip-rule="evenodd" d="M4.81128 14.7447H3.84855H1.03594H4.81128Z" stroke="#363795" stroke-linecap="square"/>
<path d="M4.7738 14.1036C4.7738 15.0076 5.50666 15.7405 6.4107 15.7405C7.31474 15.7405 8.04761 15.0076 8.04761 14.1036C8.04761 13.1995 7.31474 12.4667 6.4107 12.4667C5.50666 12.4667 4.7738 13.1995 4.7738 14.1036Z" stroke="#363795"/>
</svg>
