<svg width="20" height="20" viewBox="0 0 20 20" fill="none" xmlns="http://www.w3.org/2000/svg">
<path fill-rule="evenodd" clip-rule="evenodd" d="M8.46801 0C10.7299 0 12.8564 0.88082 14.4558 2.48023C16.0552 4.07961 16.936 6.20609 16.936 8.46797C16.936 10.7299 16.0552 12.8564 14.4558 14.4557C12.8564 16.0551 10.7299 16.936 8.46801 16.936C6.20613 16.936 4.07961 16.0551 2.48023 14.4557C0.88082 12.8564 0 10.7299 0 8.46797C0 6.20609 0.88082 4.07961 2.48023 2.48023C4.07961 0.88082 6.20609 0 8.46801 0ZM1.61578 8.46797C1.61578 12.2463 4.68965 15.3202 8.46797 15.3202C12.2463 15.3202 15.3202 12.2463 15.3202 8.46797C15.3202 4.68965 12.2463 1.61578 8.46801 1.61578C4.68969 1.61578 1.61578 4.68965 1.61578 8.46797Z" fill="#363795"/>
<path d="M19.7634 18.6208L14.4524 13.3099C14.1369 12.9944 13.6254 12.9944 13.3098 13.3099C12.9944 13.6254 12.9944 14.1369 13.3098 14.4524L18.6208 19.7634C18.7786 19.9212 18.9854 20 19.1921 20C19.3989 20 19.6057 19.9212 19.7634 19.7634C20.0789 19.4479 20.0789 18.9364 19.7634 18.6208Z" fill="#363795"/>
</svg>
