<svg width="17" height="17" viewBox="0 0 17 17" fill="none" xmlns="http://www.w3.org/2000/svg">
<path fill-rule="evenodd" clip-rule="evenodd" d="M7.37109 17H9.62891C9.99505 17 10.293 16.7021 10.293 16.3359V15.3468C10.9186 15.1841 11.5159 14.9371 12.0745 14.6102L12.773 15.3087C13.032 15.5676 13.4532 15.5676 13.7121 15.3087L15.3086 13.7121C15.5675 13.4532 15.5675 13.032 15.3086 12.7731L14.6125 12.0769C14.9409 11.5179 15.1893 10.9198 15.3531 10.293H16.3359C16.7021 10.293 17 9.99505 17 9.62891V7.37109C17 7.00495 16.7021 6.70703 16.3359 6.70703H15.3553C15.192 6.07928 14.944 5.48007 14.6156 4.92016L15.3087 4.22704C15.5676 3.96803 15.5676 3.54677 15.3087 3.28789L13.7121 1.69128C13.4532 1.4324 13.032 1.4324 12.7731 1.69128L12.0798 2.3844C11.5199 2.056 10.9207 1.80801 10.293 1.64472V0.664062C10.293 0.29792 9.99505 0 9.62891 0H7.37109C7.00495 0 6.70703 0.29792 6.70703 0.664062V1.64693C6.08019 1.81074 5.48215 2.05898 4.92314 2.38751L4.22704 1.69128C3.96803 1.4324 3.54677 1.4324 3.28789 1.69128L1.69128 3.28789C1.4324 3.54677 1.4324 3.96803 1.69128 4.22691L2.38985 4.92548C2.06287 5.48396 1.81593 6.08123 1.65315 6.70703H0.664062C0.29792 6.70703 0 7.00495 0 7.37109V9.62891C0 9.99505 0.29792 10.293 0.664062 10.293H1.65536C1.81865 10.9177 2.06586 11.514 2.39283 12.0714L1.69128 12.7731C1.4324 13.032 1.4324 13.4532 1.69128 13.7121L3.28789 15.3087C3.54677 15.5676 3.96803 15.5676 4.22704 15.3087L4.92859 14.6072C5.48604 14.9341 6.08227 15.1814 6.70703 15.3446V16.3359C6.70703 16.7021 7.00495 17 7.37109 17ZM5.05738 13.9074C5.00239 13.8724 4.94052 13.8553 4.87878 13.8553C4.79305 13.8553 4.7081 13.8885 4.6439 13.9526L3.7574 14.8392L2.16093 13.2426L3.04742 12.3561C3.15767 12.246 3.17635 12.074 3.09256 11.9426C2.68932 11.3109 2.40269 10.6201 2.24095 9.88921C2.20723 9.73721 2.07247 9.62891 1.9167 9.62891H0.664062V7.37109H1.91489C2.07079 7.37109 2.20567 7.26266 2.23914 7.1104C2.40022 6.37863 2.68634 5.68668 3.08945 5.05388C3.1731 4.92262 3.1543 4.75077 3.04418 4.64079L2.16093 3.7574L3.7574 2.16093L4.63884 3.04224C4.74895 3.15248 4.9212 3.17116 5.05245 3.08711C5.68539 2.68232 6.37798 2.39478 7.11092 2.23252C7.26292 2.1988 7.37109 2.06404 7.37109 1.90827V0.664062H9.62891V1.90646C9.62891 2.06236 9.73734 2.19724 9.8896 2.23071C10.6234 2.39231 11.3171 2.67934 11.951 3.08413C12.0824 3.16792 12.2544 3.14911 12.3645 3.03899L13.2426 2.16093L14.8391 3.7574L13.961 4.63547C13.8509 4.74571 13.8321 4.91756 13.9159 5.04895C14.3207 5.68292 14.6078 6.37656 14.7693 7.1104C14.8028 7.26266 14.9376 7.37109 15.0935 7.37109H16.3359V9.62891H15.0917C14.9361 9.62891 14.8012 9.73708 14.7676 9.88921C14.6054 10.622 14.3177 11.3146 13.9129 11.9475C13.8288 12.0789 13.8475 12.251 13.9578 12.3613L14.8391 13.2426L13.2426 14.8391L12.3593 13.9558C12.2492 13.8457 12.0774 13.8269 11.9461 13.9106C11.3133 14.3137 10.6214 14.5998 9.8896 14.7609C9.73734 14.7943 9.62891 14.9292 9.62891 15.0851V16.3359H7.37109V15.0833C7.37109 14.9275 7.26292 14.7928 7.11079 14.759C6.38006 14.5973 5.68915 14.3108 5.05738 13.9074Z" fill="white"/>
<path d="M8.49996 13.3454C7.2586 13.3454 6.01725 12.8728 5.07213 11.9278C3.18201 10.0377 3.18201 6.96226 5.07213 5.07215C5.8345 4.3099 6.80115 3.83313 7.86754 3.69357C8.90008 3.55842 9.96609 3.76309 10.8696 4.2697C11.0295 4.35932 11.0864 4.56165 10.9968 4.72157C10.9071 4.88162 10.7047 4.93856 10.5448 4.8488C8.91889 3.93702 6.86146 4.22197 5.54177 5.54179C3.91054 7.17289 3.91054 9.82707 5.54177 11.4583C6.35732 12.2737 7.42877 12.6815 8.49996 12.6816C9.57141 12.6818 10.6426 12.274 11.4583 11.4583C12.7336 10.183 13.0494 8.24279 12.244 6.63049C12.162 6.46642 12.2286 6.26694 12.3926 6.18497C12.5566 6.103 12.7561 6.16967 12.838 6.33374C13.7713 8.20193 13.4056 10.4501 11.9278 11.9278C10.9827 12.8728 9.74132 13.3454 8.49996 13.3454Z" fill="white"/>
<path d="M11.7656 5.7113C11.6779 5.7113 11.5926 5.67603 11.5305 5.6139C11.4687 5.55216 11.4336 5.46682 11.4336 5.37927C11.4336 5.29185 11.4687 5.20625 11.5305 5.14452C11.5922 5.08265 11.6779 5.04724 11.7656 5.04724C11.8529 5.04724 11.9385 5.08265 12.0004 5.14452C12.0621 5.20625 12.0977 5.29185 12.0977 5.37927C12.0977 5.46682 12.0621 5.55216 12.0004 5.6139C11.9383 5.67603 11.8529 5.7113 11.7656 5.7113Z" fill="white"/>
<path fill-rule="evenodd" clip-rule="evenodd" d="M7.79659 10.8487C7.85885 10.9109 7.94328 10.946 8.03135 10.946C8.11942 10.946 8.20385 10.9109 8.26624 10.8487L11.3032 7.81178C11.4327 7.68208 11.4327 7.47183 11.3032 7.34226L10.1121 6.15123C9.98242 6.02153 9.77218 6.02153 9.64261 6.15123L8.03135 7.76236L7.35743 7.08831C7.29517 7.02605 7.21061 6.99117 7.12254 6.99117C7.03448 6.99117 6.95004 7.02605 6.88779 7.08831L5.69688 8.27934C5.56718 8.40904 5.56718 8.61929 5.69688 8.74886L7.79659 10.8487ZM8.03135 10.1443L6.40115 8.5141L7.12254 7.79271L7.79659 8.46676C7.85885 8.52901 7.94328 8.56403 8.03135 8.56403C8.11942 8.56403 8.20398 8.52901 8.26624 8.46676L9.87737 6.85563L10.5988 7.57702L8.03135 10.1443Z" fill="white"/>
</svg>
