<svg width="22" height="21" viewBox="0 0 22 21" fill="none" xmlns="http://www.w3.org/2000/svg">
<path d="M11.3446 19.5239V20.2358C11.3446 20.6289 11.0259 20.9476 10.6328 20.9476H0.711864C0.318702 20.9476 0 20.6289 0 20.2358V19.5239C0 19.1307 0.318702 18.812 0.711864 18.812H10.6328C11.0259 18.812 11.3446 19.1307 11.3446 19.5239Z" fill="white"/>
<path d="M9.29595 16.4629H0.711864C0.318702 16.4629 0 16.1442 0 15.751V15.0392C0 14.646 0.318702 14.3273 0.711864 14.3273H9.29595C9.68912 14.3273 10.0078 14.646 10.0078 15.0392V15.751C10.0078 16.1442 9.68912 16.4629 9.29595 16.4629Z" fill="white"/>
<path d="M7.959 11.9781H0.711864C0.318702 11.9781 0 11.6594 0 11.2663V10.5544C0 10.1613 0.318702 9.84256 0.711864 9.84256H7.959C8.35216 9.84256 8.67086 10.1613 8.67086 10.5544V11.2663C8.67086 11.6594 8.35216 11.9781 7.959 11.9781Z" fill="white"/>
<path d="M6.62212 6.99512H0.711864C0.318702 6.99512 0 6.67642 0 6.28325V5.57139C0 5.17823 0.318702 4.85952 0.711864 4.85952H6.62212C7.01521 4.85952 7.33398 5.17823 7.33398 5.57139V6.28325C7.33398 6.67642 7.01528 6.99512 6.62212 6.99512Z" fill="white"/>
<path d="M5.28517 2.51038H0.711864C0.318702 2.51038 0 2.19167 0 1.79851V1.08665C0 0.693484 0.318702 0.374783 0.711864 0.374783H5.28517C5.67826 0.374783 5.99703 0.693484 5.99703 1.08665V1.79851C5.99703 2.19167 5.67833 2.51038 5.28517 2.51038Z" fill="white"/>
<path d="M21.2341 5.77486L20.7307 6.27822C20.5973 6.41169 20.4162 6.48672 20.2274 6.48672C20.0386 6.48672 19.8575 6.41169 19.724 6.27822L17.2756 3.8299V19.8798C17.2756 20.273 16.9569 20.5917 16.5638 20.5917H15.8519C15.4587 20.5917 15.14 20.273 15.14 19.8798V3.82997L12.6917 6.27829C12.5582 6.41176 12.3772 6.48679 12.1884 6.48679C11.9996 6.48679 11.8185 6.41176 11.685 6.27829L11.1816 5.77493C10.9037 5.49695 10.9037 5.04619 11.1816 4.76821L15.7045 0.245308C15.8435 0.106281 16.0257 0.0368042 16.2078 0.0368042C16.39 0.0368042 16.5722 0.106281 16.7112 0.245308L21.2341 4.76821C21.5121 5.04619 21.5121 5.49695 21.2341 5.77486Z" fill="white"/>
</svg>
