<svg width="17" height="16" viewBox="0 0 17 16" fill="none" xmlns="http://www.w3.org/2000/svg">
<path fill-rule="evenodd" clip-rule="evenodd" d="M12.6733 3.16807L12.6718 7.45136C14.5619 7.78837 16.0005 9.33602 16.1986 11.2458C16.3967 13.1554 15.3063 14.9655 13.5255 15.6832C11.7448 16.4009 9.70397 15.8527 8.52253 14.3394L6.33664 15.7954L3.49914 13.9046C1.31115 12.4484 -0.00246827 9.99344 6.97392e-06 7.36522V3.16832L6.33664 0L12.6733 3.16807ZM3.78045 13.4833L6.33664 15.1871L8.23454 13.9222C8.1458 13.777 8.06573 13.6266 7.99481 13.4719L6.33664 14.5767L4.06176 13.061C2.1562 11.7926 1.01201 9.65446 1.01387 7.36522V3.79443L6.33664 1.13304L11.6594 3.79418V7.39332C11.6809 7.39202 11.7024 7.39054 11.7239 7.38906L11.7239 7.38905C11.7864 7.38476 11.849 7.38045 11.9129 7.38045C11.9766 7.38045 12.0389 7.38474 12.1012 7.38902C12.1229 7.39051 12.1446 7.39201 12.1663 7.39332V3.48156L6.33664 0.566708L0.506938 3.48156V7.36522C0.504339 9.82413 1.7333 12.121 3.78045 13.4833ZM7.80521 12.9894L6.33664 13.9677L4.3432 12.6394C4.24481 12.5736 4.14951 12.5047 4.05545 12.434V10.1686H3.54852V12.0087C3.2703 11.7507 3.01585 11.4682 2.78813 11.1646V9.69171C2.78825 9.34319 3.02525 9.03936 3.36325 8.95446L5.08219 8.52351C5.13738 9.07314 5.54246 9.52339 6.08318 9.63626V10.6755H6.59011V9.63626C7.13082 9.52351 7.53577 9.07314 7.59085 8.52351L8.71919 8.80693C7.69048 9.93824 7.34221 11.5318 7.80521 12.9891V12.9894ZM5.76993 5.35272H5.06931V7.00025L5.91412 7.63391H6.75917L7.60397 7.00025V5.94406L6.9703 5.09926H6.90162C6.54753 5.26559 6.16115 5.35223 5.76993 5.35272ZM4.58342 4.84579C4.63478 4.52797 4.83714 4.25483 5.12637 4.11324C5.68701 3.86374 6.3187 3.82401 6.90619 4.00124L6.96449 4.0854H7.3505C7.49048 4.0854 7.60397 4.19889 7.60397 4.33886V5.09926L7.22377 4.59233H6.78379L6.73033 4.61894C6.43194 4.76757 6.10322 4.8453 5.76993 4.84579H4.58342ZM7.09704 8.39431V8.01411L6.92798 8.14084H5.7453L5.57624 8.01411V8.39431C5.57624 8.81423 5.91672 9.1547 6.33664 9.1547C6.75657 9.1547 7.09704 8.81423 7.09704 8.39431ZM7.60397 8.00421V7.63391L8.1109 7.25371V4.33886C8.1109 3.91881 7.77043 3.57847 7.3505 3.57847H7.18194C6.81523 3.35557 5.90223 3.31052 5.25558 3.51275C4.53045 3.69084 4.02959 4.35297 4.05545 5.09926V5.35272H4.56238V7.25371L5.06931 7.63391V8.00297L3.23986 8.463C2.676 8.60371 2.28058 9.11064 2.2812 9.69171V10.3761C1.78169 9.45124 1.5203 8.41646 1.5208 7.36522V4.10767L6.33664 1.69975L11.1525 4.10767V7.36522C11.1525 7.38092 11.152 7.39657 11.1515 7.41219C11.151 7.42552 11.1506 7.43883 11.1505 7.4521C10.4113 7.58428 9.71981 7.90817 9.14506 8.39146L7.60397 8.00421ZM8.1109 11.6894C8.1109 13.7891 9.81313 15.4913 11.9129 15.4913C14.0116 15.4889 15.7125 13.7881 15.7149 11.6894C15.7149 9.58948 14.0126 7.88738 11.9129 7.88738C9.81313 7.88738 8.1109 9.58948 8.1109 11.6894Z" fill="white"/>
</svg>
