<svg width="16" height="16" viewBox="0 0 16 16" fill="none" xmlns="http://www.w3.org/2000/svg">
<g opacity="0.79834">
<path fill-rule="evenodd" clip-rule="evenodd" d="M1.16663 5.33337H6.16663C6.81006 5.33337 7.33337 4.81006 7.33337 4.16663V1.16663C7.33337 0.523315 6.81006 0 6.16663 0H1.16663C0.523315 0 0 0.523315 0 1.16663V4.16663C0 4.81006 0.523315 5.33337 1.16663 5.33337ZM1 1.16663C1 1.07471 1.07471 1 1.16663 1H6.16663C6.25867 1 6.33337 1.07471 6.33337 1.16663V4.16663C6.33337 4.25867 6.25867 4.33337 6.16663 4.33337H1.16663C1.07471 4.33337 1 4.25867 1 4.16663V1.16663Z" fill="white"/>
<path fill-rule="evenodd" clip-rule="evenodd" d="M1.16663 16H6.16663C6.81006 16 7.33337 15.4767 7.33337 14.8334V7.83337C7.33337 7.18994 6.81006 6.66663 6.16663 6.66663H1.16663C0.523315 6.66663 0 7.18994 0 7.83337V14.8334C0 15.4767 0.523315 16 1.16663 16ZM1 7.83337C1 7.74133 1.07471 7.66663 1.16663 7.66663H6.16663C6.25867 7.66663 6.33337 7.74133 6.33337 7.83337V14.8334C6.33337 14.9253 6.25867 15 6.16663 15H1.16663C1.07471 15 1 14.9253 1 14.8334V7.83337Z" fill="white"/>
<path fill-rule="evenodd" clip-rule="evenodd" d="M9.83325 16H14.8333C15.4766 16 15.9999 15.4767 15.9999 14.8334V11.8334C15.9999 11.1899 15.4766 10.6666 14.8333 10.6666H9.83325C9.18982 10.6666 8.6665 11.1899 8.6665 11.8334V14.8334C8.6665 15.4767 9.18982 16 9.83325 16ZM9.6665 11.8334C9.6665 11.7413 9.74121 11.6666 9.83325 11.6666H14.8333C14.9252 11.6666 14.9999 11.7413 14.9999 11.8334V14.8334C14.9999 14.9253 14.9252 15 14.8333 15H9.83325C9.74121 15 9.6665 14.9253 9.6665 14.8334V11.8334Z" fill="white"/>
<path fill-rule="evenodd" clip-rule="evenodd" d="M9.83325 9.33337H14.8333C15.4766 9.33337 15.9999 8.81006 15.9999 8.16663V1.16663C15.9999 0.523315 15.4766 0 14.8333 0H9.83325C9.18982 0 8.6665 0.523315 8.6665 1.16663V8.16663C8.6665 8.81006 9.18982 9.33337 9.83325 9.33337ZM9.6665 1.16663C9.6665 1.07471 9.74121 1 9.83325 1H14.8333C14.9252 1 14.9999 1.07471 14.9999 1.16663V8.16663C14.9999 8.25867 14.9252 8.33337 14.8333 8.33337H9.83325C9.74121 8.33337 9.6665 8.25867 9.6665 8.16663V1.16663Z" fill="white"/>
</g>
</svg>
