<svg width="17" height="17" viewBox="0 0 17 17" fill="none" xmlns="http://www.w3.org/2000/svg">
<path d="M16.2274 6.26317H7.8058V10.2895H12.0413C11.4719 11.9595 10.092 12.9737 8.32877 12.9737C5.97143 12.9737 3.9029 10.8823 3.9029 8.49824C3.9029 6.11601 5.97143 4.02636 8.32877 4.02636C9.45584 4.02636 10.4086 4.3977 11.0842 5.09958L11.3908 5.41853L14.295 2.4225L13.9793 2.10621C12.6046 0.728301 10.651 0 8.32882 0C3.65876 5.24259e-05 0 3.73288 0 8.49824C0 13.2654 3.65876 17 8.32877 17C12.6336 17 15.6922 14.3945 16.3111 10.2005C16.3917 9.65644 16.4329 9.08384 16.4333 8.49824C16.4333 7.8554 16.38 7.15792 16.2907 6.63314L16.2274 6.26317Z" fill="white"/>
</svg>
