<svg width="20" height="16" viewBox="0 0 20 16" fill="none" xmlns="http://www.w3.org/2000/svg">
<path d="M16.6618 8.88892H15.1113C15.2694 9.28213 15.3557 9.70648 15.3557 10.1488V15.474C15.3557 15.6584 15.3204 15.8354 15.2561 16H17.8193C18.7768 16 19.5558 15.2921 19.5558 14.422V11.5189C19.5558 10.0688 18.2575 8.88892 16.6618 8.88892Z" fill="white"/>
<path d="M4.20007 10.1488C4.20007 9.70644 4.28641 9.28213 4.44444 8.88892H2.89402C1.29826 8.88892 0 10.0688 0 11.519V14.422C0 15.2921 0.778931 16 1.73641 16H4.29965C4.23539 15.8353 4.20007 15.6584 4.20007 15.474V10.1488Z" fill="white"/>
<path d="M11.4664 7.11108H8.09043C6.57053 7.11108 5.33398 8.34763 5.33398 9.86753V15.4487C5.33398 15.7531 5.5808 16 5.88527 16H13.6716C13.9761 16 14.2229 15.7532 14.2229 15.4487V9.86753C14.2229 8.34763 12.9863 7.11108 11.4664 7.11108Z" fill="white"/>
<path d="M9.77821 0C7.81767 0 6.22266 1.39563 6.22266 3.11113C6.22266 4.27473 6.95664 5.29099 8.0406 5.82454C8.55473 6.0776 9.14747 6.22222 9.77821 6.22222C10.409 6.22222 11.0017 6.0776 11.5158 5.82454C12.5998 5.29099 13.3338 4.2747 13.3338 3.11113C13.3338 1.39566 11.7388 0 9.77821 0Z" fill="white"/>
<path d="M3.55534 2.66663C2.08491 2.66663 0.888672 3.86287 0.888672 5.33329C0.888672 6.80372 2.08491 7.99996 3.55534 7.99996C3.92833 7.99996 4.28351 7.9227 4.60616 7.78382C5.164 7.54365 5.62397 7.11851 5.90858 6.58597C6.10836 6.21222 6.22201 5.78583 6.22201 5.33329C6.22201 3.86291 5.02577 2.66663 3.55534 2.66663Z" fill="white"/>
<path d="M16.0007 2.66663C14.5302 2.66663 13.334 3.86287 13.334 5.33329C13.334 5.78587 13.4476 6.21226 13.6474 6.58597C13.932 7.11855 14.392 7.54369 14.9498 7.78382C15.2725 7.9227 15.6277 7.99996 16.0007 7.99996C17.4711 7.99996 18.6673 6.80372 18.6673 5.33329C18.6673 3.86287 17.4711 2.66663 16.0007 2.66663Z" fill="white"/>
</svg>
