<svg width="15" height="11" viewBox="0 0 15 11" fill="none" xmlns="http://www.w3.org/2000/svg">
<path d="M3.5293 0H14.9999V2.75H3.5293V0Z" fill="#030104"/>
<path d="M3.5293 4.5835H14.9999V7.3335H3.5293V4.5835Z" fill="#030104"/>
<path d="M3.5293 8.25H14.9999V11H3.5293V8.25Z" fill="#030104"/>
<ellipse cx="1.32353" cy="1.375" rx="1.32353" ry="1.375" fill="#030104"/>
<path d="M1.32302 4.5835C0.591826 4.5835 0 5.19799 0 5.95719C0 6.71691 0.591826 7.3335 1.32302 7.3335C2.05372 7.3335 2.64706 6.71691 2.64706 5.95719C2.64655 5.19799 2.05321 4.5835 1.32302 4.5835Z" fill="#030104"/>
<path d="M1.32302 8.25C0.591826 8.25 0 8.86613 0 9.62448C0 10.386 0.591826 11 1.32302 11C2.05372 11 2.64706 10.386 2.64706 9.62448C2.64655 8.86613 2.05321 8.25 1.32302 8.25Z" fill="#030104"/>
</svg>
