<svg width="26" height="26" viewBox="0 0 26 26" fill="none" xmlns="http://www.w3.org/2000/svg">
<path fill-rule="evenodd" clip-rule="evenodd" d="M12.0454 11.1262C9.81802 10.0584 7.06738 10.4473 5.22183 12.2929C2.8813 14.6334 2.8813 18.4377 5.22183 20.7782C7.56235 23.1187 11.3666 23.1187 13.7071 20.7782C15.5527 18.9326 15.9416 16.182 14.8738 13.9546L17.9497 10.8787L20.7782 13.7071L23.6066 10.8787L20.7782 8.05026L22.1924 6.63604L19.364 3.80762L12.0454 11.1262ZM10.8787 17.9498C10.1009 18.7276 8.82807 18.7276 8.05025 17.9498C7.27244 17.1719 7.27244 15.8991 8.05025 15.1213C8.82807 14.3435 10.1009 14.3435 10.8787 15.1213C11.6565 15.8991 11.6565 17.1719 10.8787 17.9498Z" fill="#D1D1D1"/>
<mask id="mask0" mask-type="alpha" maskUnits="userSpaceOnUse" x="3" y="3" width="21" height="20">
<path fill-rule="evenodd" clip-rule="evenodd" d="M12.0454 11.1262C9.81802 10.0584 7.06738 10.4473 5.22183 12.2929C2.8813 14.6334 2.8813 18.4377 5.22183 20.7782C7.56235 23.1187 11.3666 23.1187 13.7071 20.7782C15.5527 18.9326 15.9416 16.182 14.8738 13.9546L17.9497 10.8787L20.7782 13.7071L23.6066 10.8787L20.7782 8.05026L22.1924 6.63604L19.364 3.80762L12.0454 11.1262ZM10.8787 17.9498C10.1009 18.7276 8.82807 18.7276 8.05025 17.9498C7.27244 17.1719 7.27244 15.8991 8.05025 15.1213C8.82807 14.3435 10.1009 14.3435 10.8787 15.1213C11.6565 15.8991 11.6565 17.1719 10.8787 17.9498Z" fill="white"/>
</mask>
<g mask="url(#mask0)">
</g>
</svg>
