<svg width="12" height="12" viewBox="0 0 12 12" fill="none" xmlns="http://www.w3.org/2000/svg">
<path d="M1.84388 0H1.03617L0 0.841585L0.540891 1.34526C0.754227 1.18184 0.88123 1.06244 0.921901 0.98742H0.937139V1.06696C0.937139 1.24367 0.935805 1.5109 0.933296 1.86879C0.930734 2.22663 0.929453 2.49611 0.929453 2.67725H0.114167V3.33333H2.66667V2.67725H1.84388V0Z" fill="black"/>
<path d="M11.936 1.40771C11.8929 1.35821 11.8422 1.3335 11.7835 1.3335H3.55004C3.49137 1.3335 3.44069 1.35821 3.39772 1.40771C3.35491 1.45721 3.3335 1.51577 3.3335 1.58349V3.0835C3.3335 3.15123 3.35484 3.20978 3.39772 3.25929C3.44069 3.30873 3.49137 3.3335 3.55004 3.3335H11.7835C11.8423 3.3335 11.893 3.30873 11.936 3.25929C11.9788 3.20978 12.0002 3.15123 12.0002 3.0835V1.58349C12.0003 1.51579 11.9788 1.45721 11.936 1.40771Z" fill="black"/>
<path d="M1.84904 9.98813L2.54883 9.23944V8.6665H0.0958241V9.65607H0.876608V9.31101C0.955197 9.31101 1.07427 9.30905 1.23395 9.3047C1.39345 9.30025 1.5126 9.29813 1.59119 9.29813V9.3047C1.49776 9.38282 1.40699 9.46631 1.31858 9.55535C1.23016 9.64438 1.12582 9.76152 1.00548 9.90673C0.885225 10.0522 0.805501 10.1466 0.76618 10.19L0.957648 10.5546C1.47328 10.5198 1.73113 10.6413 1.73113 10.9192C1.73113 11.0407 1.67834 11.1329 1.57274 11.1957C1.46724 11.2588 1.34319 11.2902 1.20077 11.2902C0.920882 11.2902 0.660578 11.1926 0.419985 10.9972L0 11.5702C0.32411 11.8566 0.746443 11.9998 1.26705 11.9998C1.6648 11.9998 1.99747 11.9001 2.26523 11.7004C2.53286 11.5007 2.66667 11.2273 2.66667 10.8801C2.66667 10.6587 2.5929 10.4677 2.44576 10.3071C2.29839 10.1466 2.09959 10.0402 1.84904 9.98813Z" fill="black"/>
<path d="M1.90578 6.68865H0.985456C0.990355 6.58011 1.07609 6.46619 1.24277 6.34695C1.40945 6.22765 1.59169 6.11808 1.78987 6.01821C1.98787 5.91831 2.16904 5.77846 2.33333 5.59836C2.4976 5.41822 2.57971 5.21965 2.57971 5.00264C2.57971 4.69446 2.45897 4.45031 2.21744 4.27019C1.97596 4.09009 1.67877 4 1.32613 4C1.04586 4 0.79101 4.06184 0.561537 4.18557C0.33209 4.30925 0.15942 4.4818 0.0434529 4.70321L0.659458 5.0873C0.828574 4.83552 1.02421 4.70969 1.2464 4.70969C1.36727 4.70969 1.46265 4.73899 1.53273 4.79757C1.60271 4.85627 1.63783 4.93975 1.63783 5.04827C1.63783 5.14807 1.58103 5.24574 1.4675 5.34121C1.35392 5.43669 1.21747 5.53107 1.058 5.6244C0.898601 5.71773 0.73913 5.82085 0.579761 5.93368C0.420366 6.04653 0.283789 6.19402 0.170258 6.3763C0.0567781 6.55859 0 6.76046 0 6.98178C0 7.05988 0.0144928 7.17709 0.0434275 7.33333H2.66667V6.29804V6.29795H1.90578V6.68865Z" fill="black"/>
<path d="M11.7835 8.6665H3.55004C3.48689 8.6665 3.43495 8.68998 3.3944 8.7368C3.35377 8.78365 3.3335 8.84356 3.3335 8.91643V10.4166C3.3335 10.4843 3.35484 10.5429 3.39772 10.5923C3.44069 10.6418 3.49137 10.6665 3.55004 10.6665H11.7835C11.8423 10.6665 11.893 10.642 11.936 10.5923C11.9788 10.5429 12.0002 10.4843 12.0002 10.4166V8.91646C12.0002 8.84884 11.9787 8.79022 11.936 8.74077C11.893 8.6913 11.8422 8.6665 11.7835 8.6665Z" fill="black"/>
<path d="M11.7835 5.3335H3.55004C3.48689 5.3335 3.43495 5.35689 3.3944 5.40376C3.35377 5.45064 3.3335 5.51056 3.3335 5.58346V7.08345C3.3335 7.15118 3.35484 7.20968 3.39772 7.25923C3.44069 7.30876 3.49137 7.3335 3.55004 7.3335H11.7835C11.8423 7.3335 11.893 7.30876 11.936 7.25923C11.9788 7.20968 12.0002 7.15118 12.0002 7.08345V5.58346C12.0002 5.51576 11.9787 5.45718 11.936 5.4077C11.893 5.35823 11.8422 5.3335 11.7835 5.3335Z" fill="black"/>
</svg>
