<svg width="18" height="18" viewBox="0 0 18 18" fill="none" xmlns="http://www.w3.org/2000/svg">
<path fill-rule="evenodd" clip-rule="evenodd" d="M8.71429 0C8.162 0 7.71429 0.447716 7.71429 1V7.71429H1C0.447715 7.71429 0 8.162 0 8.71429V9.28571C0 9.838 0.447716 10.2857 1 10.2857H7.71429V17C7.71429 17.5523 8.162 18 8.71429 18H9.28571C9.838 18 10.2857 17.5523 10.2857 17V10.2857H17C17.5523 10.2857 18 9.838 18 9.28571V8.71429C18 8.162 17.5523 7.71429 17 7.71429H10.2857V1C10.2857 0.447715 9.838 0 9.28571 0H8.71429Z" fill="#363795"/>
</svg>
