<svg width="16" height="16" viewBox="0 0 16 16" fill="none" xmlns="http://www.w3.org/2000/svg">
<path fill-rule="evenodd" clip-rule="evenodd" d="M15.6875 6.52341H13.6875C13.5149 6.52341 13.375 6.66334 13.375 6.83591V8.41403C13.375 8.58659 13.5149 8.72653 13.6875 8.72653C13.8601 8.72653 14 8.58659 14 8.41403V7.14841H15.375V15.375H14.6875H14V10.7578C14 10.5852 13.8601 10.4453 13.6875 10.4453C13.5149 10.4453 13.375 10.5852 13.375 10.7578V15.375H12.75V8.90625C12.75 8.73369 12.6101 8.59375 12.4375 8.59375H10.4375C10.2649 8.59375 10.125 8.73369 10.125 8.90625V15.375H9.5V11.0938C9.5 10.9212 9.36009 10.7812 9.1875 10.7812H7.1875C7.01491 10.7812 6.875 10.9212 6.875 11.0938V15.375H6.25V12.8867C6.25 12.7142 6.11009 12.5742 5.9375 12.5742H3.9375C3.76491 12.5742 3.625 12.7142 3.625 12.8867V15.375H0.9375C0.765188 15.375 0.625 15.2348 0.625 15.0625V0.9375C0.625 0.765188 0.765188 0.625 0.9375 0.625H8.99922V2.68759C8.99922 3.20453 9.41978 3.62509 9.93672 3.62509H11.9992V7.46875C11.9992 7.64131 12.1391 7.78125 12.3117 7.78125C12.4843 7.78125 12.6242 7.64131 12.6242 7.46875V3.31259C12.6242 3.22972 12.5913 3.15025 12.5327 3.09162L9.53269 0.0915312C9.47406 0.0329375 9.39459 0 9.31172 0H0.9375C0.420563 0 0 0.420563 0 0.9375V15.0625C0 15.5794 0.420563 16 0.9375 16H15.6875C15.8601 16 16 15.8601 16 15.6875V6.83591C16 6.66334 15.8601 6.52341 15.6875 6.52341ZM9.62422 1.06697L11.5573 3.00009H9.93672C9.76437 3.00009 9.62422 2.85991 9.62422 2.68759V1.06697ZM4.25 15.375H5.625V13.1992H4.25V15.375ZM8.875 15.375H7.5V11.4062H8.875V15.375ZM10.75 15.375H12.125V9.21875H10.75V15.375Z" fill="white"/>
</svg>
