<svg width="13" height="11" viewBox="0 0 13 11" fill="none" xmlns="http://www.w3.org/2000/svg">
<path d="M0.231943 8.00202C0.29966 8.00202 0.355189 7.97868 0.398684 7.93198L2.4864 5.68751C2.52985 5.64081 2.55166 5.58106 2.55166 5.50832C2.55166 5.43555 2.52985 5.37585 2.4864 5.32907L0.398684 3.08474C0.355189 3.03796 0.29966 3.01465 0.231943 3.01465C0.169127 3.01465 0.114766 3.03921 0.0688594 3.08859C0.0229277 3.138 0 3.19646 0 3.26402V7.75262C0 7.82026 0.0229277 7.87872 0.0688594 7.92805C0.114766 7.97726 0.169127 8.00202 0.231943 8.00202Z" fill="black"/>
<path d="M12.7585 9H0.231943C0.169127 9 0.114766 9.02446 0.0688594 9.07389C0.0229277 9.12327 0 9.18168 0 9.24926V10.7456C0 10.813 0.0229277 10.8714 0.0688594 10.9208C0.114791 10.9703 0.169127 10.9949 0.231943 10.9949H12.7585C12.8215 10.9949 12.8757 10.9703 12.9217 10.9208C12.9677 10.8714 12.9905 10.813 12.9905 10.7456V9.24926C12.9905 9.18165 12.9676 9.12327 12.9217 9.07386C12.8757 9.02465 12.8214 9 12.7585 9Z" fill="black"/>
<path d="M12.7587 6.00732H4.87159C4.80878 6.00732 4.75441 6.03216 4.70851 6.0814C4.6626 6.13064 4.63965 6.1893 4.63965 6.25675V7.75294C4.63965 7.82058 4.66258 7.87904 4.70851 7.92837C4.75444 7.97772 4.80878 8.00225 4.87159 8.00225H12.7587C12.8216 8.00225 12.8759 7.9778 12.9219 7.92837C12.9678 7.87904 12.9907 7.82058 12.9907 7.75294V6.25675C12.9907 6.1893 12.9677 6.13084 12.9219 6.0814C12.8759 6.03216 12.8216 6.00732 12.7587 6.00732Z" fill="black"/>
<path d="M12.7587 3.01465H4.87159C4.80878 3.01465 4.75441 3.03921 4.70851 3.08859C4.66258 3.138 4.63965 3.19646 4.63965 3.26402V4.76026C4.63965 4.82776 4.66258 4.88623 4.70851 4.93561C4.75444 4.98482 4.80878 5.00963 4.87159 5.00963H12.7587C12.8216 5.00963 12.8759 4.98493 12.9219 4.93561C12.9678 4.88623 12.9907 4.82776 12.9907 4.76026V3.26402C12.9907 3.19646 12.9677 3.138 12.9219 3.08859C12.8759 3.0393 12.8216 3.01465 12.7587 3.01465Z" fill="black"/>
<path d="M12.9217 0.0964857C12.8757 0.0472178 12.8215 0.0224609 12.7585 0.0224609H0.231943C0.169127 0.0224609 0.114766 0.0471086 0.0688594 0.0964857C0.0229531 0.145863 0 0.204302 0 0.271831V1.76808C0 1.83563 0.0229277 1.89404 0.0688594 1.94342C0.114791 1.9928 0.169127 2.01745 0.231943 2.01745H12.7585C12.8215 2.01745 12.8757 1.99288 12.9217 1.94342C12.9677 1.89404 12.9905 1.83563 12.9905 1.76808V0.271831C12.9905 0.204302 12.9676 0.145863 12.9217 0.0964857Z" fill="black"/>
</svg>
