<svg width="49" height="43" viewBox="0 0 49 43" fill="none" xmlns="http://www.w3.org/2000/svg">
<path fill-rule="evenodd" clip-rule="evenodd" d="M0.5 22H18.5V0H0.5V22ZM0.5 40H18.5V27H0.5V40ZM22.5 40H40.5V18H22.5V40ZM22.5 0V13H40.5V0H22.5Z" fill="#363795"/>
<circle cx="39.5" cy="34" r="9" fill="#EFF2F7"/>
<path fill-rule="evenodd" clip-rule="evenodd" d="M39.5 34C40.605 34 41.5 33.105 41.5 32C41.5 30.895 40.605 30 39.5 30C38.395 30 37.5 30.895 37.5 32C37.5 33.105 38.395 34 39.5 34ZM39.5 35C38.165 35 35.5 35.67 35.5 37V38H43.5V37C43.5 35.67 40.835 35 39.5 35Z" fill="#363795"/>
</svg>
