<svg width="16" height="16" viewBox="0 0 16 16" fill="none" xmlns="http://www.w3.org/2000/svg">
<path fill-rule="evenodd" clip-rule="evenodd" d="M16 3.82609C16 3.78122 15.9903 3.73739 15.9739 3.6967C15.9697 3.68635 15.9636 3.67754 15.9574 3.66858C15.9538 3.66339 15.9501 3.65814 15.9468 3.65252C15.9432 3.64647 15.9399 3.64025 15.9365 3.63404L15.9365 3.63401L15.9365 3.63397C15.929 3.61987 15.9215 3.6058 15.9106 3.59374L12.7798 0.115478C12.7141 0.042087 12.6202 0 12.5214 0H11.841H11.8104H6.60835C6.03304 0 5.56487 0.468174 5.56487 1.04348V2.78261H1.04348C0.468174 2.78261 0 3.25078 0 3.82609V14.9565C0 15.5318 0.468174 16 1.04348 16H9.3913C9.96661 16 10.4348 15.5318 10.4348 14.9565V13.2174H14.9565C15.5318 13.2174 16 12.7492 16 12.1739V4.52348L16.0002 4.52261L16.0003 4.52174L16 3.82609ZM9.73913 14.9565C9.73913 15.1482 9.58296 15.3043 9.3913 15.3043H1.04348C0.851826 15.3043 0.695652 15.1482 0.695652 14.9565V3.82609C0.695652 3.63443 0.851826 3.47826 1.04348 3.47826H5.56522V7.30435C5.56522 7.49635 5.72104 7.65217 5.91304 7.65217H9.73913V14.9565ZM6.26087 6.95652H9.73913V6.75304L6.4647 3.47826H6.26087V6.95652ZM15.3043 12.1739C15.3043 12.3659 15.1482 12.5217 14.9565 12.5217H10.4348V7.32C10.4348 7.31739 10.4349 7.31478 10.435 7.31217C10.435 7.30957 10.4351 7.30696 10.4351 7.30435L10.4348 6.6087V6.60765C10.4344 6.51548 10.3986 6.432 10.3398 6.37009C10.3398 6.36939 10.3388 6.36939 10.3391 6.36939C10.3391 6.36939 10.339 6.3693 10.339 6.36916C10.3389 6.36903 10.3388 6.36886 10.3388 6.3687C10.3384 6.3687 10.3381 6.36835 10.3381 6.368L10.3332 6.36313L6.85496 2.88487C6.78957 2.81948 6.70087 2.78261 6.6087 2.78261H6.26052V1.04348C6.26052 0.851826 6.4167 0.695652 6.60835 0.695652H11.4779V4.52174C11.4779 4.71374 11.6337 4.86957 11.8257 4.86957H15.3043V12.1739ZM12.1736 4.17391H15.3043V3.95965L12.3666 0.695652H12.1736V4.17391Z" fill="#363795"/>
</svg>
