<svg width="17" height="17" viewBox="0 0 17 17" fill="none" xmlns="http://www.w3.org/2000/svg">
<path fill-rule="evenodd" clip-rule="evenodd" d="M16.1774 0H2.46774C2.01423 0 1.64516 0.369065 1.64516 0.822581V3.29032H1.37097C0.615016 3.29032 0 3.90534 0 4.66129V15.629C0 16.385 0.615016 17 1.37097 17H9.59677C10.3527 17 10.9677 16.385 10.9677 15.629V14.8065H16.1774C16.6309 14.8065 17 14.4374 17 13.9839V0.822581C17 0.369065 16.6309 0 16.1774 0ZM2.46774 0.548387H16.1774C16.3285 0.548387 16.4516 0.671226 16.4516 0.822581V2.19355H2.19355V0.822581C2.19355 0.671226 2.31666 0.548387 2.46774 0.548387ZM1.64516 3.83871H1.37097C0.917452 3.83871 0.548387 4.20777 0.548387 4.66129C0.548387 5.11481 0.917452 5.48387 1.37097 5.48387H1.64516V3.83871ZM10.4194 15.629C10.4194 16.0825 10.0503 16.4516 9.59678 16.4516H1.37097C0.917452 16.4516 0.548387 16.0825 0.548387 15.629V5.75752C0.777613 5.92998 1.0625 6.03226 1.37097 6.03226H7.95161C8.40513 6.03226 8.77419 6.40132 8.77419 6.85484V10.2738L10.1232 11.3982C10.3113 11.5548 10.4194 11.7848 10.4194 12.0297V15.629ZM10.9677 14.2581H16.1774C16.3285 14.2581 16.4516 14.1352 16.4516 13.9839V2.74194H2.19355V5.48387H7.95161C8.70756 5.48387 9.32258 6.09889 9.32258 6.85484V10.0166L10.4745 10.9765C10.7879 11.2378 10.9677 11.6217 10.9677 12.0297V14.2581Z" fill="white"/>
<path d="M4.93555 1.09677H5.48393V1.64516H4.93555V1.09677Z" fill="white"/>
<path d="M3.83887 1.09677H4.38725V1.64516H3.83887V1.09677Z" fill="white"/>
<path d="M2.7417 1.09677H3.29009V1.64516H2.7417V1.09677Z" fill="white"/>
<path fill-rule="evenodd" clip-rule="evenodd" d="M15.9032 13.7097H11.5161V10.9677H15.9032V13.7097ZM15.3548 11.5161H12.0645V13.1613H15.3548V11.5161Z" fill="white"/>
<path fill-rule="evenodd" clip-rule="evenodd" d="M14.3615 7.31082C14.6332 7.06021 14.8065 6.70431 14.8065 6.30645C14.8065 5.5505 14.1915 4.93549 13.4355 4.93549C12.6796 4.93549 12.0645 5.5505 12.0645 6.30645C12.0645 6.70431 12.2378 7.06021 12.5096 7.31082C11.6066 7.67797 10.9678 8.56361 10.9678 9.59678V10.4194H15.9033V9.59678C15.9033 8.56361 15.2644 7.67797 14.3615 7.31082ZM12.6129 6.30645C12.6129 5.85294 12.982 5.48387 13.4355 5.48387C13.889 5.48387 14.2581 5.85294 14.2581 6.30645C14.2581 6.75997 13.889 7.12903 13.4355 7.12903C12.982 7.12903 12.6129 6.75997 12.6129 6.30645ZM11.5162 9.59678V9.87097H15.3549V9.59678C15.3549 8.53866 14.4939 7.67742 13.4355 7.67742C12.3771 7.67742 11.5162 8.53866 11.5162 9.59678Z" fill="white"/>
<path d="M2.7417 3.29033H8.77396V3.83872H2.7417V3.29033Z" fill="white"/>
<path d="M2.7417 4.3871H3.29009V4.93549H2.7417V4.3871Z" fill="white"/>
<path d="M3.83887 4.3871H8.77435V4.93549H3.83887V4.3871Z" fill="white"/>
<path d="M14.2583 3.29033H14.8067V3.83872H14.2583V3.29033Z" fill="white"/>
<path d="M15.355 3.29033H15.9034V3.83872H15.355V3.29033Z" fill="white"/>
<path d="M13.1611 3.29033H13.7095V3.83872H13.1611V3.29033Z" fill="white"/>
<path fill-rule="evenodd" clip-rule="evenodd" d="M1.64507 14.2581H2.19345C2.49589 14.2581 2.74184 14.504 2.74184 14.8064V15.3548C2.74184 15.6573 2.49589 15.9032 2.19345 15.9032H1.64507C1.34263 15.9032 1.09668 15.6573 1.09668 15.3548V14.8064C1.09668 14.504 1.34263 14.2581 1.64507 14.2581ZM1.64507 14.8064V15.3548H2.19373L2.19345 14.8064H1.64507Z" fill="white"/>
<path fill-rule="evenodd" clip-rule="evenodd" d="M3.83891 14.2581H4.3873C4.68974 14.2581 4.93569 14.504 4.93569 14.8064V15.3548C4.93569 15.6573 4.68974 15.9032 4.3873 15.9032H3.83891C3.53648 15.9032 3.29053 15.6573 3.29053 15.3548V14.8064C3.29053 14.504 3.53648 14.2581 3.83891 14.2581ZM3.83891 14.8064V15.3548H4.38758L4.3873 14.8064H3.83891Z" fill="white"/>
<path d="M1.09668 13.1613H4.93539V13.7097H1.09668V13.1613Z" fill="white"/>
<path d="M4.38721 12.0645H4.93559V12.6129H4.38721V12.0645Z" fill="white"/>
<path d="M1.09668 12.0645H3.83862V12.6129H1.09668V12.0645Z" fill="white"/>
<path d="M7.67725 6.58064H8.22563V7.12903H7.67725V6.58064Z" fill="white"/>
<path d="M7.67725 7.67741H8.22563V8.2258H7.67725V7.67741Z" fill="white"/>
<path d="M7.67725 8.7742H8.22563V9.32259H7.67725V8.7742Z" fill="white"/>
</svg>
