<svg width="18" height="18" viewBox="0 0 18 18" fill="none" xmlns="http://www.w3.org/2000/svg">
<g id="Edit">
<path id="Stroke 1" d="M14.0002 7.16667V10.3333V13.5V16C14.0002 16.368 13.7015 16.6667 13.3335 16.6667H10.8335H7.66683H4.50016H2.00016C1.63216 16.6667 1.3335 16.368 1.3335 16V13.5V10.3333V7.16667V4.66667C1.3335 4.29867 1.63216 4 2.00016 4H4.50016H7.66683H10.8335" stroke="#5B5B5B" stroke-linecap="round" stroke-linejoin="round"/>
<path id="Stroke 3" fill-rule="evenodd" clip-rule="evenodd" d="M10.3462 9.21792L7.99951 9.99992L8.78218 7.65392L11.7802 4.65525L14.7782 1.65725C14.9942 1.44125 15.2775 1.33325 15.5602 1.33325C15.8435 1.33325 16.1262 1.44125 16.3422 1.65725C16.5582 1.87325 16.6662 2.15659 16.6662 2.43925C16.6662 2.72259 16.5582 3.00592 16.3422 3.22192L13.3442 6.21992L10.3462 9.21792Z" stroke="#3B4859" stroke-linecap="round" stroke-linejoin="round"/>
</g>
</svg>
