<svg width="33" height="32" viewBox="0 0 33 32" fill="none" xmlns="http://www.w3.org/2000/svg">
<path fill-rule="evenodd" clip-rule="evenodd" d="M30.8542 25.6737L32.6066 31.1041C32.6801 31.3317 32.6199 31.5813 32.4508 31.7506C32.3294 31.8721 32.1665 31.9373 32 31.9373C31.9346 31.9373 31.8686 31.9273 31.8044 31.9066L26.374 30.1557C24.5741 31.0532 22.4985 31.3922 20.4971 31.1107C18.3329 30.8066 16.3701 29.8269 14.8209 28.2777C12.6305 26.0889 11.5942 23.0539 11.9587 20.0108C10.0134 20.2475 8.00832 19.9025 6.26343 19.0321L0.83312 20.783C0.768929 20.8036 0.702953 20.8137 0.63755 20.8137C0.471048 20.8137 0.30818 20.7484 0.186746 20.627C0.0175663 20.4578 -0.042609 20.2082 0.0307615 19.9806L1.78158 14.5501C0.884244 12.751 0.545184 10.6752 0.826554 8.67358C1.13081 6.50886 2.11044 4.54584 3.65957 2.99658C5.19073 1.46631 7.12826 0.490186 9.26289 0.173437C11.3558 -0.137065 13.4509 0.208625 15.3217 1.17321C15.6346 1.33462 15.7574 1.71906 15.5961 2.03192C15.4347 2.34485 15.0503 2.46768 14.7374 2.30635C11.3505 0.559987 7.26104 1.19967 4.56093 3.89825C1.86273 6.59658 1.23382 10.8299 3.03175 14.1928C3.11328 14.3452 3.12941 14.5243 3.07631 14.6889L1.62585 19.1877L6.12453 17.7372C6.28906 17.6843 6.46818 17.7003 6.62072 17.7818C9.98353 19.5797 14.2167 18.9509 16.915 16.2524C19.6109 13.5566 20.2518 9.4688 18.51 6.08062C18.349 5.76751 18.4723 5.38319 18.7854 5.22223C19.0986 5.06115 19.4829 5.18456 19.6438 5.49768C20.5611 7.2819 20.9162 9.26896 20.678 11.2625C23.7301 10.8864 26.7768 11.9209 28.976 14.1202C30.5254 15.6697 31.5053 17.6328 31.8098 19.7972C32.0914 21.7993 31.7523 23.8748 30.8542 25.6737ZM26.0168 28.9054C26.1692 28.8238 26.3483 28.8079 26.5129 28.8609L31.0111 30.3111L29.5593 25.8126C29.5061 25.6479 29.5223 25.4687 29.6039 25.3161C31.4029 21.9545 30.774 17.7213 28.0745 15.0217C26.0587 13.0059 23.2268 12.1119 20.4301 12.5877C19.9867 14.3123 19.0951 15.8752 17.8165 17.1539C16.5451 18.4254 14.9946 19.3129 13.2829 19.7586C12.8184 22.5477 13.7142 25.3695 15.7222 27.3759C18.463 30.1168 22.5999 30.7314 26.0168 28.9054Z" fill="black"/>
<path d="M27 19.5H17" stroke="#3A3A3A"/>
<path d="M22 24.5H18" stroke="#3A3A3A"/>
<path fill-rule="evenodd" clip-rule="evenodd" d="M10.3119 4.68384C13.046 4.68384 15.2704 6.90905 15.2704 9.64422C15.2704 10.7827 14.8837 11.8321 14.2362 12.67L15.8562 14.2901C16.1052 14.5391 16.1052 14.9427 15.8562 15.1916C15.7318 15.3161 15.5686 15.3783 15.4055 15.3783C15.2424 15.3783 15.0792 15.3161 14.9548 15.1916L13.3344 13.5712C12.4969 14.2172 11.4489 14.6028 10.3119 14.6028C7.57677 14.6028 5.35156 12.3784 5.35156 9.64422C5.35156 6.90905 7.57677 4.68384 10.3119 4.68384ZM11.8268 10.2606L13.3252 11.759C13.7468 11.16 13.9955 10.4308 13.9954 9.64428C13.9954 7.61216 12.3429 5.9588 10.3118 5.9588C8.27969 5.9588 6.6264 7.61209 6.6264 9.64428C6.6264 11.6755 8.27969 13.328 10.3118 13.328C11.0969 13.328 11.8248 13.0803 12.4232 12.6601L10.9253 11.1622C10.6763 10.9132 10.6764 10.5096 10.9253 10.2606C11.1742 10.0118 11.5779 10.0118 11.8268 10.2606Z" fill="black"/>
<path d="M17.3762 3.98404C17.5375 3.98404 17.699 3.92317 17.8231 3.80109C18.0741 3.55427 18.0775 3.1507 17.8307 2.89961L17.8289 2.89776C17.582 2.64686 17.1794 2.64425 16.9283 2.89113C16.6773 3.13796 16.6748 3.54248 16.9217 3.79351C17.0464 3.92043 17.2113 3.98404 17.3762 3.98404Z" fill="black"/>
</svg>
