<svg width="32" height="32" viewBox="0 0 32 32" fill="none" xmlns="http://www.w3.org/2000/svg">
<circle cx="16" cy="16" r="16" fill="#616161"/>
<path d="M16 26.1815C10.3761 26.1815 5.81853 21.6239 5.81853 16C5.81853 10.3761 10.3761 5.81853 16 5.81853C18.8106 5.81853 21.3557 6.95826 23.1994 8.80064L27.3135 4.68654C24.4177 1.79081 20.4171 0 16 0C7.16326 0 0 7.16326 0 16C0 24.8367 7.16326 32 16 32C20.4184 32 24.4177 30.2092 27.3147 27.3147L23.2006 23.2006C21.3557 25.0417 18.8106 26.1815 16 26.1815Z" fill="#9E9E9E"/>
<path d="M26.1815 15.9999H21.0902C21.0902 13.1893 18.8107 10.9086 15.9988 10.9086C13.1869 10.9086 10.9087 13.188 10.9087 15.9999C10.9087 17.3692 11.4502 18.6107 12.3308 19.5274L12.3269 19.5313L18.6302 25.8346L18.6315 25.8359C22.979 24.6755 26.1815 20.7123 26.1815 15.9999Z" fill="#424242"/>
<path d="M31.9986 16H26.1801C26.1801 20.7123 22.9762 24.6756 18.6313 25.8359L23.1245 30.3291C28.3848 27.708 31.9986 22.2762 31.9986 16Z" fill="#616161"/>
<path d="M16 31.8169C7.1942 31.8169 0.0515713 24.7026 0.00128928 15.9084C0.00128928 15.9394 0 15.969 0 16C0 24.8367 7.16326 32 16 32C24.8367 32 32 24.8367 32 16C32 15.969 31.9987 15.9394 31.9987 15.9084C31.9484 24.7026 24.8045 31.8169 16 31.8169Z" fill="#212121" fill-opacity="0.1"/>
<path d="M18.6328 25.8359L18.7746 25.9778C23.0473 24.771 26.1816 20.8438 26.1816 16.1818V16C26.1816 20.7123 22.9777 24.6756 18.6328 25.8359Z" fill="white" fill-opacity="0.05"/>
<path d="M29.0906 14.5452H15.9992C15.196 14.5452 14.5449 15.1963 14.5449 15.9995C14.5449 16.8027 15.196 17.4538 15.9992 17.4538H29.0893C29.8925 17.4538 30.5436 16.8027 30.5436 15.9995C30.5449 15.1963 29.8938 14.5452 29.0906 14.5452Z" fill="#9E9E9E"/>
<path opacity="0.5" d="M29.0906 14.5452H15.9992C15.196 14.5452 14.5449 15.1963 14.5449 15.9995C14.5449 16.8027 15.196 17.4538 15.9992 17.4538H29.0893C29.8925 17.4538 30.5436 16.8027 30.5436 15.9995C30.5449 15.1963 29.8938 14.5452 29.0906 14.5452Z" fill="#BDBDBD"/>
<circle cx="2.9086" cy="16" r="1.09073" fill="#BDBDBD"/>
<circle cx="15.9999" cy="2.9086" r="1.09073" fill="#BDBDBD"/>
<circle cx="15.9999" cy="29.0901" r="1.09073" fill="#BDBDBD"/>
<circle cx="6.72745" cy="6.74296" r="1.09073" fill="#BDBDBD"/>
<circle cx="6.72745" cy="25.2725" r="1.09073" fill="#BDBDBD"/>
<circle cx="25.2724" cy="25.2725" r="1.09073" fill="#757575"/>
<path d="M16.0002 14.7274H29.0903C29.8626 14.7274 30.4943 15.3308 30.5395 16.0915C30.5407 16.0606 30.5446 16.0309 30.5446 16C30.5446 15.1967 29.8935 14.5457 29.0903 14.5457H16.0002C15.197 14.5457 14.5459 15.1967 14.5459 16C14.5459 16.0309 14.5472 16.0606 14.5511 16.0915C14.5962 15.3308 15.2266 14.7274 16.0002 14.7274Z" fill="white" fill-opacity="0.2"/>
<path d="M30.5395 16.0902C30.4917 16.8496 29.8613 17.4543 29.0903 17.4543H16.0002C15.2279 17.4543 14.5962 16.8509 14.5511 16.0902C14.5472 16.1212 14.5459 16.1508 14.5459 16.1805C14.5459 16.9837 15.197 17.6348 16.0002 17.6348H29.0903C29.8935 17.6348 30.5446 16.9837 30.5446 16.1805C30.5446 16.1508 30.5433 16.1212 30.5395 16.0902Z" fill="#212121" fill-opacity="0.2"/>
<path d="M15.9998 6.00037C18.8105 6.00037 21.3555 7.1401 23.1992 8.98248L27.4022 4.77684C27.3713 4.7459 27.3416 4.71496 27.312 4.6853L23.1992 8.7994C21.3555 6.95702 18.8105 5.81729 15.9998 5.81729C10.376 5.81729 5.81836 10.3749 5.81836 15.9988C5.81836 16.0297 5.81965 16.0594 5.81965 16.0903C5.86864 10.509 10.4069 6.00037 15.9998 6.00037Z" fill="#212121" fill-opacity="0.1"/>
<circle cx="16" cy="16" r="16" fill="url(#paint0_radial)"/>
<defs>
<radialGradient id="paint0_radial" cx="0" cy="0" r="1" gradientUnits="userSpaceOnUse" gradientTransform="translate(4.6921 4.65567) scale(31.9447)">
<stop stop-color="white" stop-opacity="0.1"/>
<stop offset="1" stop-color="white" stop-opacity="0.01"/>
</radialGradient>
</defs>
</svg>
