<svg width="33" height="43" viewBox="0 0 33 43" fill="none" xmlns="http://www.w3.org/2000/svg">
<path fill-rule="evenodd" clip-rule="evenodd" d="M24.3901 30.1608C23.3786 31.5835 20.5478 34.9435 16.3769 34.9435C12.2026 34.9435 9.37038 31.5776 8.36182 30.1583C9.36577 28.7361 12.1808 25.3781 16.3769 25.3781C20.5478 25.3781 23.3786 28.7381 24.3901 30.1608ZM17.8876 28.901H14.8664V31.4206H17.8876V28.901Z" fill="#363795"/>
<path fill-rule="evenodd" clip-rule="evenodd" d="M32.7409 26.6361C32.7409 35.6592 25.4001 43 16.377 43C7.35393 43 0.0130234 35.6592 0.0129395 26.6361V17.371C0.0129395 16.1221 1.02907 15.106 2.27791 15.106C3.52685 15.106 4.54289 16.1221 4.54289 17.371V21.5999H7.06242V5.28614C7.06242 4.03721 8.07846 3.02117 9.32739 3.02117C10.5763 3.02117 11.5925 4.03721 11.5925 5.28614V18.4289H14.112V5.28623V2.26497C14.112 1.01604 15.128 0 16.377 0C17.6259 0 18.6419 1.01604 18.6418 2.26497V5.28614V18.4288H21.1614V5.28614C21.1614 4.03721 22.1775 3.02117 23.4264 3.02117C24.6754 3.02117 25.6914 4.03721 25.6914 5.28614V21.5999H28.2109V17.371C28.2109 16.1221 29.227 15.106 30.4759 15.106C31.7248 15.106 32.7409 16.1221 32.7409 17.371V26.6361ZM16.377 22.8586C9.62923 22.8586 5.91671 29.2665 5.76201 29.5392L5.40944 30.1608L5.76201 30.7824C5.91679 31.0552 9.62923 37.463 16.377 37.463C23.1247 37.463 26.8371 31.0552 26.9919 30.7824L27.3445 30.1608L26.9919 29.5392C26.8372 29.2665 23.1247 22.8586 16.377 22.8586Z" fill="#363795"/>
</svg>
