<svg width="16" height="16" viewBox="0 0 16 16" fill="none" xmlns="http://www.w3.org/2000/svg">
<path fill-rule="evenodd" clip-rule="evenodd" d="M15.6875 6.52341H13.6875C13.5149 6.52341 13.375 6.66334 13.375 6.83591V8.41403C13.375 8.58659 13.5149 8.72653 13.6875 8.72653C13.8601 8.72653 14 8.58659 14 8.41403V7.14841H15.375V15.375H14.6875H14V10.7578C14 10.5852 13.8601 10.4453 13.6875 10.4453C13.5149 10.4453 13.375 10.5852 13.375 10.7578V15.375H12.75V8.90625C12.75 8.73369 12.6101 8.59375 12.4375 8.59375H10.4375C10.2649 8.59375 10.125 8.73369 10.125 8.90625V15.375H9.5V11.0938C9.5 10.9212 9.36009 10.7812 9.1875 10.7812H7.1875C7.01491 10.7812 6.875 10.9212 6.875 11.0938V15.375H6.25V12.8867C6.25 12.7142 6.11009 12.5742 5.9375 12.5742H3.9375C3.76491 12.5742 3.625 12.7142 3.625 12.8867V15.375H0.9375C0.765188 15.375 0.625 15.2348 0.625 15.0625V0.9375C0.625 0.765188 0.765188 0.625 0.9375 0.625H8.99922V2.68759C8.99922 3.20453 9.41978 3.62509 9.93672 3.62509H11.9992V7.46875C11.9992 7.64131 12.1391 7.78125 12.3117 7.78125C12.4843 7.78125 12.6242 7.64131 12.6242 7.46875V3.31259C12.6242 3.22972 12.5913 3.15025 12.5327 3.09162L9.53269 0.0915312C9.47406 0.0329375 9.39459 0 9.31172 0H0.9375C0.420563 0 0 0.420563 0 0.9375V15.0625C0 15.5794 0.420563 16 0.9375 16H15.6875C15.8601 16 16 15.8601 16 15.6875V6.83591C16 6.66334 15.8601 6.52341 15.6875 6.52341ZM9.62422 1.06697L11.5573 3.00009H9.93672C9.76437 3.00009 9.62422 2.85991 9.62422 2.68759V1.06697ZM4.25 15.375H5.625V13.1992H4.25V15.375ZM8.875 15.375H7.5V11.4062H8.875V15.375ZM10.75 15.375H12.125V9.21875H10.75V15.375Z" fill="white"/>
<path d="M13.9084 9.30688C13.8503 9.24847 13.7697 9.21531 13.6875 9.21531C13.6053 9.21531 13.5247 9.24847 13.4666 9.30688C13.4084 9.365 13.375 9.44563 13.375 9.52781C13.375 9.61 13.4084 9.69063 13.4666 9.74875C13.5247 9.80684 13.6053 9.84031 13.6875 9.84031C13.7697 9.84031 13.8503 9.80688 13.9084 9.74875C13.9666 9.69063 14 9.61 14 9.52781C14 9.44563 13.9666 9.365 13.9084 9.30688Z" fill="white"/>
<path fill-rule="evenodd" clip-rule="evenodd" d="M4.54951 1.71028C4.37692 1.71028 4.23701 1.85022 4.23701 2.02278V2.58494C2.79854 2.74109 1.67529 3.96297 1.67529 5.44228C1.67529 7.02713 2.96467 8.3165 4.54951 8.3165C6.02882 8.3165 7.2507 7.19328 7.40686 5.75478H7.96898C8.14157 5.75478 8.28148 5.61484 8.28148 5.44228C8.28148 3.38444 6.60732 1.71028 4.54951 1.71028ZM4.54951 7.69147C3.30929 7.69147 2.30029 6.68247 2.30029 5.44225C2.30029 4.30809 3.1442 3.36728 4.23701 3.21469V5.44225C4.23701 5.61481 4.37692 5.75475 4.54951 5.75475H6.77707C6.62448 6.84756 5.68367 7.69147 4.54951 7.69147ZM4.86201 5.12975V5.12978H7.64089C7.49395 3.66566 6.32614 2.49781 4.86201 2.35088V5.12975Z" fill="white"/>
<path d="M7.96875 9.19531H2C1.82741 9.19531 1.6875 9.33525 1.6875 9.50781C1.6875 9.68037 1.82741 9.82031 2 9.82031H7.96875C8.14134 9.82031 8.28125 9.68037 8.28125 9.50781C8.28125 9.33525 8.14134 9.19531 7.96875 9.19531Z" fill="white"/>
<path d="M4 10.7031H2C1.82741 10.7031 1.6875 10.8431 1.6875 11.0156C1.6875 11.1882 1.82741 11.3281 2 11.3281H4C4.17259 11.3281 4.3125 11.1882 4.3125 11.0156C4.3125 10.8431 4.17259 10.7031 4 10.7031Z" fill="white"/>
<path d="M5.78588 10.7947C5.72775 10.7366 5.64713 10.7031 5.56494 10.7031C5.48244 10.7031 5.40213 10.7365 5.344 10.7947C5.28557 10.8528 5.25244 10.9334 5.25244 11.0156C5.25244 11.0978 5.28557 11.1784 5.344 11.2365C5.40213 11.2947 5.48244 11.3281 5.56494 11.3281C5.64713 11.3281 5.72775 11.2947 5.78588 11.2365C5.844 11.1784 5.87744 11.0978 5.87744 11.0156C5.87744 10.9334 5.844 10.8528 5.78588 10.7947Z" fill="white"/>
</svg>
