<svg width="42" height="43" viewBox="0 0 42 43" fill="none" xmlns="http://www.w3.org/2000/svg">
<path d="M42.0002 6.11267H32.8127V15.2996H35.4377V10.5357C41.1138 17.8251 40.457 28.2039 33.907 34.7195C27.357 41.2351 16.9744 41.8381 9.71399 36.1245C2.45362 30.4109 0.599594 20.1779 5.39359 12.2803C10.1879 4.38276 20.1223 1.30519 28.542 5.10882C29.1758 5.41097 29.9352 5.16778 30.2755 4.55354C30.4495 4.22736 30.479 3.84351 30.3569 3.49458C30.2351 3.14533 29.973 2.86336 29.6337 2.71629C21.1473 -1.11104 11.1537 1.1059 5.08181 8.16236C-0.990394 15.2191 -1.69118 25.431 3.3598 33.251C8.41079 41.0707 18.0077 44.6321 26.9379 41.9999C35.8677 39.3677 41.9986 31.1709 42.0002 21.8616C42.0098 17.0839 40.372 12.4488 37.3632 8.7375H42.0002V6.11267Z" fill="#363795"/>
<path fill-rule="evenodd" clip-rule="evenodd" d="M17.2338 24.9868L17.7294 24.6245L17.0458 23.7153L18.1053 23.4146L17.9208 22.8267L16.9056 23.2197L16.9569 22.0234H16.3451L16.3964 23.1992L15.3641 22.7993L15.1761 23.377L16.2186 23.6777L15.5111 24.6074L16.0101 24.9561L16.6185 24.0024L17.2338 24.9868ZM22.8725 24.9868L23.3681 24.6245L22.6845 23.7153L23.7441 23.4146L23.5595 22.8267L22.5444 23.2197L22.5956 22.0234H21.9838L22.0351 23.1992L21.0029 22.7993L20.8149 23.377L21.8573 23.6777L21.1498 24.6074L21.6488 24.9561L22.2572 24.0024L22.8725 24.9868ZM29.0068 24.6245L28.5112 24.9868L27.896 24.0024L27.2876 24.9561L26.7885 24.6074L27.4961 23.6777L26.4536 23.377L26.6416 22.7993L27.6738 23.1992L27.6225 22.0234H28.2343L28.1831 23.2197L29.1982 22.8267L29.3828 23.4146L28.3232 23.7153L29.0068 24.6245Z" fill="#363795"/>
<rect x="8.75" y="20.75" width="25.5" height="6.5" stroke="#363795" stroke-width="1.5"/>
</svg>
