<svg width="30" height="35" viewBox="0 0 30 35" fill="none" xmlns="http://www.w3.org/2000/svg">
<path fill-rule="evenodd" clip-rule="evenodd" d="M25.6412 7H13.3588C11.5114 7 10 8.46777 10 10.2617V19.407V17.6799V24L13.16 20.9313C13.2261 20.9356 13.2916 20.9416 13.3588 20.9416H25.6412C27.4886 20.9416 29 19.4738 29 17.6799V10.2617C29 8.46777 27.4886 7 25.6412 7Z" stroke="#3A3A3A"/>
<path d="M19.5 21V22" stroke="#3A3A3A"/>
<path d="M20 21.4823V30.7157C20 32.522 18.4886 34 16.6412 34H4.35877C2.51145 34 1 32.522 1 30.7157V4.28434C1 2.47796 2.51145 1 4.35877 1H16.6412C18.4886 1 20 2.47796 20 4.28434V6.89649" stroke="#3A3A3A"/>
<path d="M9 3.5H12" stroke="#3A3A3A"/>
<path fill-rule="evenodd" clip-rule="evenodd" d="M13 29.5C13 30.3287 12.1042 31 11 31C9.89513 31 9 30.3287 9 29.5C9 28.6713 9.89513 28 11 28C12.1042 28 13 28.6713 13 29.5Z" stroke="#3A3A3A"/>
<path d="M14 11.5H24" stroke="#3A3A3A"/>
<path d="M15 16.5H19" stroke="#3A3A3A"/>
</svg>
