<svg width="48" height="43" viewBox="0 0 48 43" fill="none" xmlns="http://www.w3.org/2000/svg">
<path fill-rule="evenodd" clip-rule="evenodd" d="M20 20C25.525 20 30 15.525 30 10C30 4.475 25.525 0 20 0C14.475 0 10 4.475 10 10C10 15.525 14.475 20 20 20ZM20 25C13.325 25 0 28.35 0 35V40H40V35C40 28.35 26.675 25 20 25Z" fill="#363795"/>
<circle cx="39" cy="34" r="9" fill="#EFF2F7"/>
<path fill-rule="evenodd" clip-rule="evenodd" d="M36.5152 32.5732H42.9545C43.1637 32.5732 43.3333 32.7331 43.3333 32.9303V38.643C43.3333 38.8401 43.1637 39 42.9545 39H35.3788C35.1696 39 35 38.8401 35 38.643V32.9303C35 32.7331 35.1696 32.5732 35.3788 32.5732H35.7576V32.2162C35.7567 30.9054 36.6006 29.7256 37.8899 29.2347C39.6357 28.5701 41.6225 29.3652 42.3277 31.0108C42.404 31.1923 42.3115 31.398 42.12 31.4725C41.9266 31.5477 41.7051 31.4609 41.6254 31.2786C41.2204 30.3329 40.2465 29.7141 39.1646 29.7149C37.7002 29.716 36.514 30.8358 36.5152 32.2162V32.5732ZM39.9999 36.1558C40.3558 36.0441 40.6357 35.7956 40.7615 35.4796C40.9916 34.9019 40.6506 34.268 39.9999 34.0638C39.3492 33.8595 38.6352 34.1622 38.4051 34.7399C38.1751 35.3177 38.5161 35.9515 39.1668 36.1558V36.9635C39.1668 37.1678 39.3533 37.3333 39.5833 37.3333C39.8134 37.3333 39.9999 37.1678 39.9999 36.9635V36.1558Z" fill="#363795"/>
</svg>
