<svg width="20" height="19" viewBox="0 0 20 19" fill="none" xmlns="http://www.w3.org/2000/svg">
<path fill-rule="evenodd" clip-rule="evenodd" d="M15.8879 2.2931H13.431V0H6.22414V5.24138H13.431V2.94828H15.8879C17.6039 2.94828 19 4.34436 19 6.06034C19 6.88971 18.6756 7.67076 18.087 8.25939C17.498 8.84818 16.7171 9.17241 15.8879 9.17241H13.5539L14.4138 6.87931H7.2069L6.34698 9.17241H3.76724C1.69008 9.17241 0 10.8623 0 12.9397C0 13.9442 0.392527 14.8897 1.10496 15.6019C1.81772 16.3145 2.76305 16.7069 3.76724 16.7069H6.22414V19H13.431V16.7069H14.7674C14.9268 17.8177 15.8796 18.6724 17.0345 18.6724C18.3009 18.6724 19.3276 17.6457 19.3276 16.3793C19.3276 15.1129 18.3009 14.0862 17.0345 14.0862C15.8796 14.0862 14.9268 14.9409 14.7674 16.0517H13.431V13.7586H6.22414V16.0517H3.76724C2.93804 16.0517 2.15714 15.7275 1.56819 15.1387C0.979558 14.5501 0.655172 13.769 0.655172 12.9397C0.655172 11.2237 2.05125 9.82759 3.76724 9.82759H6.10129L5.24138 12.1207H12.4483L13.3082 9.82759H15.8879C16.8921 9.82759 17.8375 9.43522 18.5502 8.72262C19.2626 8.01035 19.6552 7.06486 19.6552 6.06034C19.6552 3.98302 17.9651 2.2931 15.8879 2.2931ZM12.4483 4.25862H7.2069V3.60345H12.4483V4.25862ZM7.2069 2.94828H12.4483V2.2931H7.2069V2.94828ZM12.4483 1.63793H7.2069V0.982759H12.4483V1.63793ZM16.7069 16.5713L16.2833 16.1477L15.8201 16.6109L16.7069 17.4977L18.2489 15.9558L17.7856 15.4925L16.7069 16.5713ZM7.2069 14.7414H12.4483V15.3966H7.2069V14.7414ZM12.4483 16.0517H7.2069V16.7069H12.4483V16.0517ZM7.2069 17.3621H12.4483V18.0172H7.2069V17.3621ZM6.87931 11.1379H11.4655V10.4828H6.87931V11.1379ZM12.1207 9.82759H7.53448V9.17241H12.1207V9.82759ZM8.18966 8.51724H12.7759V7.86207H8.18966V8.51724Z" fill="white"/>
</svg>
