<svg width="7" height="10" viewBox="0 0 7 10" fill="none" xmlns="http://www.w3.org/2000/svg">
<path fill-rule="evenodd" clip-rule="evenodd" d="M5.64242 4.69478C6.05257 4.19766 6.3 3.55629 6.3 2.85714C6.3 1.2817 5.04389 0 3.5 0H2.1H0.7H0V10H0.7H2.1H4.2C5.74389 10 7 8.71828 7 7.14286C7 6.10538 6.45536 5.19536 5.64242 4.69478ZM2.1 1.42857H3.21016C3.82231 1.42857 4.32031 2.06942 4.32031 2.85714C4.32031 3.64487 3.82231 4.28571 3.21016 4.28571H2.1V1.42857ZM2.1 8.57143H3.83906C4.47836 8.57143 4.99844 7.93058 4.99844 7.14286C4.99844 6.35513 4.47836 5.71429 3.83906 5.71429H2.1V8.57143Z" fill="black"/>
</svg>
