<svg width="17" height="17" viewBox="0 0 17 17" fill="none" xmlns="http://www.w3.org/2000/svg">
<path fill-rule="evenodd" clip-rule="evenodd" d="M16.1774 0H2.46774C2.01423 0 1.64516 0.369065 1.64516 0.822581V3.29032H1.37097C0.615016 3.29032 0 3.90534 0 4.66129V15.629C0 16.385 0.615016 17 1.37097 17H9.59677C10.3527 17 10.9677 16.385 10.9677 15.629V14.8065H16.1774C16.6309 14.8065 17 14.4374 17 13.9839V0.822581C17 0.369065 16.6309 0 16.1774 0ZM2.46774 0.548387H16.1774C16.3285 0.548387 16.4516 0.671226 16.4516 0.822581V2.19355H2.19355V0.822581C2.19355 0.671226 2.31666 0.548387 2.46774 0.548387ZM1.64516 3.83871H1.37097C0.917452 3.83871 0.548387 4.20777 0.548387 4.66129C0.548387 5.11481 0.917452 5.48387 1.37097 5.48387H1.64516V3.83871ZM10.4194 15.629C10.4194 16.0825 10.0503 16.4516 9.59678 16.4516H1.37097C0.917452 16.4516 0.548387 16.0825 0.548387 15.629V5.75752C0.777613 5.92998 1.0625 6.03226 1.37097 6.03226H7.95161C8.40513 6.03226 8.77419 6.40132 8.77419 6.85484V10.2738L10.1232 11.3982C10.3113 11.5548 10.4194 11.7848 10.4194 12.0297V15.629ZM10.9677 14.2581H16.1774C16.3285 14.2581 16.4516 14.1352 16.4516 13.9839V2.74194H2.19355V5.48387H7.95161C8.70756 5.48387 9.32258 6.09889 9.32258 6.85484V10.0166L10.4745 10.9765C10.7879 11.2378 10.9677 11.6217 10.9677 12.0297V14.2581Z" fill="white"/>
</svg>
