<svg width="36" height="36" viewBox="0 0 36 36" fill="none" xmlns="http://www.w3.org/2000/svg">
<path d="M0 7C0 3.13401 3.13401 0 7 0H36V36H7C3.13401 36 0 32.866 0 29V7Z" fill="white"/>
<path d="M18.3446 9.4761V8.76423C18.3446 8.37107 18.0259 8.05237 17.6328 8.05237H7.71186C7.3187 8.05237 7 8.37107 7 8.76423V9.4761C7 9.86926 7.3187 10.188 7.71186 10.188H17.6328C18.0259 10.188 18.3446 9.86926 18.3446 9.4761Z" fill="#D8D9DB"/>
<path d="M16.296 12.5371H7.71186C7.3187 12.5371 7 12.8558 7 13.249V13.9608C7 14.354 7.3187 14.6727 7.71186 14.6727H16.296C16.6891 14.6727 17.0078 14.354 17.0078 13.9608V13.249C17.0078 12.8558 16.6891 12.5371 16.296 12.5371Z" fill="#D8D9DB"/>
<path d="M14.959 17.0219H7.71186C7.3187 17.0219 7 17.3406 7 17.7337V18.4456C7 18.8387 7.3187 19.1574 7.71186 19.1574H14.959C15.3522 19.1574 15.6709 18.8387 15.6709 18.4456V17.7337C15.6709 17.3406 15.3522 17.0219 14.959 17.0219Z" fill="#D8D9DB"/>
<path d="M13.6221 22.0049H7.71186C7.3187 22.0049 7 22.3236 7 22.7167V23.4286C7 23.8218 7.3187 24.1405 7.71186 24.1405H13.6221C14.0152 24.1405 14.334 23.8218 14.334 23.4286V22.7167C14.334 22.3236 14.0153 22.0049 13.6221 22.0049Z" fill="#D8D9DB"/>
<path d="M12.2852 26.4896H7.71186C7.3187 26.4896 7 26.8083 7 27.2015V27.9134C7 28.3065 7.3187 28.6252 7.71186 28.6252H12.2852C12.6783 28.6252 12.997 28.3065 12.997 27.9134V27.2015C12.997 26.8083 12.6783 26.4896 12.2852 26.4896Z" fill="#D8D9DB"/>
<path d="M28.2341 23.2251L27.7307 22.7218C27.5973 22.5883 27.4162 22.5133 27.2274 22.5133C27.0386 22.5133 26.8575 22.5883 26.724 22.7218L24.2756 25.1701V9.12019C24.2756 8.72703 23.9569 8.40833 23.5638 8.40833H22.8519C22.4587 8.40833 22.14 8.72703 22.14 9.12019V25.17L19.6917 22.7217C19.5582 22.5882 19.3772 22.5132 19.1884 22.5132C18.9996 22.5132 18.8185 22.5882 18.685 22.7217L18.1816 23.2251C17.9037 23.5031 17.9037 23.9538 18.1816 24.2318L22.7045 28.7547C22.8435 28.8937 23.0257 28.9632 23.2078 28.9632C23.39 28.9632 23.5722 28.8937 23.7112 28.7547L28.2341 24.2318C28.5121 23.9538 28.5121 23.5031 28.2341 23.2251Z" fill="#D8D9DB"/>
</svg>
