<svg width="14" height="12" viewBox="0 0 14 12" fill="none" xmlns="http://www.w3.org/2000/svg">
<path fill-rule="evenodd" clip-rule="evenodd" d="M0.148342 3.98248L4.14832 0.142501C4.24737 0.0475003 4.36455 0 4.49995 0C4.63534 0 4.75262 0.0475003 4.85148 0.142501C4.95044 0.237594 5.00001 0.350085 5.00001 0.480066V2.40006H6.75001C10.4637 2.40006 12.7422 3.4076 13.586 5.42259C13.862 6.09256 14 6.92511 14 7.92013C14 8.75009 13.6693 9.87758 13.0078 11.3026C12.9922 11.3377 12.965 11.3975 12.9258 11.4825C12.8867 11.5674 12.8516 11.6425 12.8204 11.7074C12.789 11.7724 12.7552 11.8275 12.7187 11.8724C12.6563 11.9575 12.5833 12 12.5 12C12.4218 12 12.3607 11.9751 12.3164 11.9251C12.2722 11.8751 12.25 11.8125 12.25 11.7376C12.25 11.6926 12.2565 11.6264 12.2696 11.5389C12.2826 11.4514 12.2891 11.3926 12.2891 11.3627C12.3152 11.0227 12.3282 10.7151 12.3282 10.4402C12.3282 9.9353 12.2826 9.48276 12.1915 9.08278C12.1003 8.68271 11.974 8.33658 11.8125 8.04403C11.6511 7.75139 11.4428 7.49898 11.1875 7.28651C10.9324 7.07405 10.6576 6.90034 10.3634 6.7653C10.0691 6.63025 9.72271 6.52402 9.32429 6.44651C8.92586 6.369 8.52485 6.31524 8.12115 6.28523C7.71745 6.25522 7.26044 6.24031 6.75001 6.24031H5.00001V8.1603C5.00001 8.29028 4.95053 8.40286 4.85167 8.49777C4.75262 8.59268 4.63544 8.64027 4.50014 8.64027C4.36474 8.64027 4.24747 8.59268 4.14841 8.49777L0.148438 4.6577C0.0494795 4.5627 0 4.45021 0 4.32023C0 4.19025 0.0494795 4.07766 0.148342 3.98248Z" fill="#9B9B9B"/>
</svg>
