<svg width="14" height="12" viewBox="0 0 14 12" fill="none" xmlns="http://www.w3.org/2000/svg">
<path fill-rule="evenodd" clip-rule="evenodd" d="M13.8517 3.98248L9.85168 0.142501C9.75263 0.0475003 9.63545 0 9.50005 0C9.36466 0 9.24738 0.0475003 9.14852 0.142501C9.04956 0.237594 8.99999 0.350085 8.99999 0.480066V2.40006H7.24999C3.53634 2.40006 1.25779 3.4076 0.413959 5.42259C0.137986 6.09256 0 6.92511 0 7.92013C0 8.75009 0.330726 9.87758 0.992178 11.3026C1.00781 11.3377 1.03504 11.3975 1.07416 11.4825C1.11329 11.5674 1.14838 11.6425 1.17964 11.7074C1.211 11.7724 1.24485 11.8275 1.28129 11.8724C1.34371 11.9575 1.41668 12 1.50001 12C1.57816 12 1.63934 11.9751 1.68364 11.9251C1.72785 11.8751 1.75 11.8125 1.75 11.7376C1.75 11.6926 1.74348 11.6264 1.73044 11.5389C1.7174 11.4514 1.71088 11.3926 1.71088 11.3627C1.68479 11.0227 1.67175 10.7151 1.67175 10.4402C1.67175 9.9353 1.7174 9.48276 1.80849 9.08278C1.89968 8.68271 2.02597 8.33658 2.18745 8.04403C2.34893 7.75139 2.55721 7.49898 2.81247 7.28651C3.06763 7.07405 3.34236 6.90034 3.63664 6.7653C3.93093 6.63025 4.27729 6.52402 4.67571 6.44651C5.07414 6.369 5.47515 6.31524 5.87885 6.28523C6.28255 6.25522 6.73956 6.24031 7.24999 6.24031H8.99999V8.1603C8.99999 8.29028 9.04947 8.40286 9.14833 8.49777C9.24738 8.59268 9.36456 8.64027 9.49986 8.64027C9.63526 8.64027 9.75253 8.59268 9.85159 8.49777L13.8516 4.6577C13.9505 4.5627 14 4.45021 14 4.32023C14 4.19025 13.9505 4.07766 13.8517 3.98248Z" fill="#9B9B9B"/>
</svg>
