<?xml version="1.0" encoding="UTF-8"?>
<svg width="20px" height="15px" viewBox="0 0 20 15" version="1.1" xmlns="http://www.w3.org/2000/svg" xmlns:xlink="http://www.w3.org/1999/xlink">
    <title>id@svg</title>
    <g id="Directory" stroke="none" stroke-width="1" fill="none" fill-rule="evenodd">
        <g id="Profile---Application---1" transform="translate(-938.000000, -146.000000)" fill="#ECECEE">
            <g id="id" transform="translate(938.000000, 146.000000)">
                <path d="M16.9866803,14.9875586 L2.19833139,14.9875586 C0.985655756,14.9875586 0,14.0019028 0,12.7892272 L0,2.79698477 C0,1.58430913 0.985655756,0.598799775 2.19833139,0.598799775 L6.99458432,0.598799775 C7.32552693,0.598799775 7.59411593,0.867388778 7.59411593,1.19833139 C7.59411593,1.529274 7.32552693,1.79786301 6.99458432,1.79786301 L2.19833139,1.79786301 C1.64754098,1.79786301 1.19906323,2.24619436 1.19906323,2.79698477 L1.19906323,12.7892272 C1.19906323,13.3400176 1.64754098,13.7884953 2.19833139,13.7884953 L16.9866803,13.7884953 C17.5374707,13.7884953 17.9859485,13.3400176 17.9859485,12.7892272 L17.9859485,2.79698477 C17.9859485,2.24619436 17.5374707,1.79786301 16.9866803,1.79786301 L4.19042739,1.79786301 C3.85948478,1.79786301 3.59089578,1.529274 3.59089578,1.19833139 C3.59089578,0.867388778 3.85948478,0.598799775 4.19042739,0.598799775 L16.9866803,0.598799775 C18.199356,0.598799775 19.1850117,1.58430913 19.1850117,2.79698477 L19.1850117,12.7892272 C19.1850117,14.0019028 18.199356,14.9875586 16.9866803,14.9875586 Z" id="Path" fill-rule="nonzero"></path>
                <path d="M18,1 L18,14 L1,14 L1,1 L18,1 Z M7.39417446,9.39183254 L4.59645785,9.39183254 C3.38378222,9.39183254 2.39812646,10.3774883 2.39812646,11.5901639 L2.39812646,11.5901639 L2.39812646,11.9899005 C2.39812646,12.3208431 2.66671547,12.5894321 2.99765808,12.5894321 C3.32860069,12.5894321 3.5971897,12.3208431 3.5971897,11.9899005 L3.5971897,11.9899005 L3.5971897,11.5901639 C3.5971897,11.0393735 4.04566745,10.5908958 4.59645785,10.5908958 L4.59645785,10.5908958 L7.39417446,10.5908958 C7.94496487,10.5908958 8.39344262,11.0393735 8.39344262,11.5901639 L8.39344262,11.5901639 L8.39344262,11.9899005 C8.39344262,12.3208431 8.66203163,12.5894321 8.99297424,12.5894321 C9.32391685,12.5894321 9.59250585,12.3208431 9.59250585,11.9899005 L9.59250585,11.9899005 L9.59250585,11.5901639 C9.59250585,10.3774883 8.6068501,9.39183254 7.39417446,9.39183254 L7.39417446,9.39183254 Z M16.1873536,11.3903689 L11.7908372,11.3903689 C11.4598946,11.3903689 11.1913056,11.6589579 11.1913056,11.9899005 C11.1913056,12.3208431 11.4598946,12.5894321 11.7908372,12.5894321 L11.7908372,12.5894321 L16.1873536,12.5894321 C16.5182962,12.5894321 16.7868852,12.3208431 16.7868852,11.9899005 C16.7868852,11.6589579 16.5182962,11.3903689 16.1873536,11.3903689 L16.1873536,11.3903689 Z M16.1873536,8.19276931 L11.7908372,8.19276931 C11.4598946,8.19276931 11.1913056,8.46135831 11.1913056,8.79230093 C11.1913056,9.12324354 11.4598946,9.39183254 11.7908372,9.39183254 L11.7908372,9.39183254 L16.1873536,9.39183254 C16.5182962,9.39183254 16.7868852,9.12324354 16.7868852,8.79230093 C16.7868852,8.46135831 16.5182962,8.19276931 16.1873536,8.19276931 L16.1873536,8.19276931 Z M5.99531616,4.59557962 C4.89373534,4.59557962 3.99692624,5.49253512 3.99692624,6.59411593 C3.99692624,7.69555035 4.89373534,8.59250585 5.99531616,8.59250585 C7.09689697,8.59250585 7.99370608,7.69555035 7.99370608,6.59411593 C7.99370608,5.49253512 7.09689697,4.59557962 5.99531616,4.59557962 Z M5.99531616,5.79464285 C6.43574355,5.79464285 6.79464285,6.15354215 6.79464285,6.59411593 C6.79464285,7.03454333 6.43574355,7.39344262 5.99531616,7.39344262 C5.55488877,7.39344262 5.19598947,7.03454333 5.19598947,6.59411593 C5.19598947,6.15354215 5.55488877,5.79464285 5.99531616,5.79464285 Z M16.1873536,4.99531616 L11.7908372,4.99531616 C11.4598946,4.99531616 11.1913056,5.26390516 11.1913056,5.59484778 C11.1913056,5.92579039 11.4598946,6.19437939 11.7908372,6.19437939 L11.7908372,6.19437939 L16.1873536,6.19437939 C16.5182962,6.19437939 16.7868852,5.92579039 16.7868852,5.59484778 C16.7868852,5.26390516 16.5182962,4.99531616 16.1873536,4.99531616 L16.1873536,4.99531616 Z" id="Combined-Shape"></path>
            </g>
        </g>
    </g>
</svg>