<svg width="13" height="11" viewBox="0 0 13 11" fill="none" xmlns="http://www.w3.org/2000/svg">
<path d="M12.7678 9.1665H0.232112C0.16925 9.1665 0.114849 9.18898 0.0689096 9.23441C0.0229445 9.27979 0 9.33347 0 9.39558V10.7707C0 10.8327 0.0229445 10.8863 0.0689096 10.9318C0.114875 10.9772 0.16925 10.9998 0.232112 10.9998H12.7678C12.8308 10.9998 12.8851 10.9772 12.9311 10.9318C12.9771 10.8863 13 10.8327 13 10.7707V9.39558C13 9.33344 12.9771 9.27979 12.9311 9.23438C12.8851 9.18916 12.8308 9.1665 12.7678 9.1665Z" fill="black"/>
<path d="M2.36366 7.33333C2.42764 7.33333 2.48306 7.31086 2.52984 7.26543C2.57659 7.2201 2.6 7.16637 2.6 7.10421V2.97917C2.6 2.91709 2.57659 2.86336 2.52984 2.81795C2.48303 2.77265 2.42762 2.75 2.36366 2.75C2.29466 2.75 2.23808 2.77142 2.19376 2.81442L0.0664385 4.87696C0.0222238 4.91998 0 4.97482 0 5.04169C0 5.10854 0.0221203 5.16345 0.0664385 5.20637L2.19376 7.26904C2.23808 7.31196 2.29466 7.33333 2.36366 7.33333Z" fill="black"/>
<path d="M12.7594 2.75H4.57421C4.50902 2.75 4.4526 2.77258 4.40496 2.81795C4.35729 2.86335 4.3335 2.91708 4.3335 2.97916V4.35417C4.3335 4.4162 4.35729 4.46993 4.40496 4.51531C4.45263 4.56053 4.50902 4.58333 4.57421 4.58333H12.7594C12.8247 4.58333 12.881 4.56063 12.9288 4.51531C12.9764 4.46993 13.0002 4.4162 13.0002 4.35417V2.97916C13.0002 2.91708 12.9764 2.86335 12.9288 2.81795C12.881 2.77265 12.8247 2.75 12.7594 2.75Z" fill="black"/>
<path d="M12.7594 6.4165H4.57421C4.50902 6.4165 4.4526 6.43933 4.40496 6.48458C4.35732 6.52983 4.3335 6.58374 4.3335 6.64572V8.02072C4.3335 8.08288 4.35729 8.13661 4.40496 8.18193C4.45263 8.22729 4.50902 8.24984 4.57421 8.24984H12.7594C12.8247 8.24984 12.881 8.22736 12.9288 8.18193C12.9764 8.13661 13.0002 8.08288 13.0002 8.02072V6.64572C13.0002 6.58374 12.9764 6.53001 12.9288 6.48458C12.881 6.43933 12.8247 6.4165 12.7594 6.4165Z" fill="black"/>
<path d="M12.9311 0.0680267C12.8851 0.0227508 12.8308 0 12.7678 0H0.232112C0.16925 0 0.114849 0.0226505 0.0689096 0.0680267C0.0229699 0.113403 0 0.167107 0 0.229164V1.60417C0 1.66625 0.0229445 1.71993 0.0689096 1.76531C0.114875 1.81068 0.16925 1.83333 0.232112 1.83333H12.7678C12.8308 1.83333 12.8851 1.81076 12.9311 1.76531C12.9771 1.71993 13 1.66625 13 1.60417V0.229164C13 0.167107 12.977 0.113403 12.9311 0.0680267Z" fill="black"/>
</svg>
