<svg width="20" height="16" viewBox="0 0 20 16" fill="none" xmlns="http://www.w3.org/2000/svg">
<path d="M16.6615 8.88867H15.1111C15.2691 9.28188 15.3555 9.70623 15.3555 10.1485V15.4738C15.3555 15.6582 15.3201 15.8352 15.2559 15.9998H17.8191C18.7766 15.9998 19.5555 15.2919 19.5555 14.4217V11.5187C19.5556 10.0685 18.2573 8.88867 16.6615 8.88867Z" fill="#8392A7"/>
<path d="M4.20007 10.1485C4.20007 9.70619 4.28641 9.28188 4.44444 8.88867H2.89402C1.29826 8.88867 0 10.0685 0 11.5187V14.4218C0 15.2919 0.778931 15.9998 1.73641 15.9998H4.29965C4.23539 15.8351 4.20007 15.6581 4.20007 15.4737V10.1485Z" fill="#8392A7"/>
<path d="M11.4657 7.11133H8.0897C6.56979 7.11133 5.33325 8.34787 5.33325 9.86778V15.4489C5.33325 15.7534 5.58007 16.0002 5.88454 16.0002H13.6709C13.9753 16.0002 14.2221 15.7534 14.2221 15.4489V9.86778C14.2221 8.34787 12.9856 7.11133 11.4657 7.11133Z" fill="#8392A7"/>
<path d="M9.77772 0C7.81718 0 6.22217 1.39563 6.22217 3.11113C6.22217 4.27473 6.95615 5.29099 8.04011 5.82454C8.55424 6.0776 9.14698 6.22222 9.77772 6.22222C10.4085 6.22222 11.0012 6.0776 11.5153 5.82454C12.5993 5.29099 13.3333 4.2747 13.3333 3.11113C13.3333 1.39566 11.7383 0 9.77772 0Z" fill="#8392A7"/>
<path d="M3.55558 2.6665C2.08516 2.6665 0.888916 3.86274 0.888916 5.33317C0.888916 6.8036 2.08516 7.99984 3.55558 7.99984C3.92858 7.99984 4.28376 7.92257 4.6064 7.7837C5.16425 7.54353 5.62421 7.11838 5.90883 6.58585C6.1086 6.2121 6.22225 5.78571 6.22225 5.33317C6.22225 3.86278 5.02601 2.6665 3.55558 2.6665Z" fill="#8392A7"/>
<path d="M15.9999 2.6665C14.5295 2.6665 13.3333 3.86274 13.3333 5.33317C13.3333 5.78575 13.4469 6.21214 13.6467 6.58585C13.9313 7.11842 14.3913 7.54357 14.9491 7.7837C15.2717 7.92257 15.6269 7.99984 15.9999 7.99984C17.4703 7.99984 18.6666 6.8036 18.6666 5.33317C18.6666 3.86274 17.4703 2.6665 15.9999 2.6665Z" fill="#8392A7"/>
</svg>
